<svg xmlns="http://www.w3.org/2000/svg" version="1.1" xmlns:xlink="http://www.w3.org/1999/xlink" viewBox="0 0 200 200"><rect width="200" height="200" fill="url('#gradient')"></rect><defs><linearGradient id="gradient" gradientTransform="rotate(45 0.5 0.5)"><stop offset="0%" stop-color="#000000"></stop><stop offset="100%" stop-color="#513d36"></stop></linearGradient></defs><g><g fill="#ffffff" transform="matrix(1.9702832709780866,0,0,1.9702832709780866,8.767319243416821,110.77619882600948)" stroke="#ecdfa5" stroke-width="0.2"><path d="M8.41-3.78L8.41-3.78Q8.41-4.53 7.88-4.95Q7.34-5.37 6.01-5.82Q4.67-6.27 3.82-6.69L3.82-6.69Q1.05-8.05 1.05-10.42L1.05-10.42Q1.05-11.60 1.74-12.50Q2.43-13.41 3.69-13.91Q4.95-14.41 6.52-14.41L6.52-14.41Q8.06-14.41 9.27-13.87Q10.49-13.32 11.16-12.31Q11.84-11.30 11.84-10L11.84-10L8.42-10Q8.42-10.87 7.89-11.35Q7.35-11.83 6.45-11.83L6.45-11.83Q5.53-11.83 5.00-11.42Q4.46-11.02 4.46-10.39L4.46-10.39Q4.46-9.84 5.05-9.40Q5.63-8.96 7.11-8.48Q8.58-8.01 9.53-7.46L9.53-7.46Q11.84-6.13 11.84-3.80L11.84-3.80Q11.84-1.93 10.43-0.87Q9.02 0.20 6.57 0.20L6.57 0.20Q4.84 0.20 3.44-0.42Q2.04-1.04 1.33-2.12Q0.63-3.20 0.63-4.61L0.63-4.61L4.06-4.61Q4.06-3.47 4.65-2.92Q5.24-2.38 6.57-2.38L6.57-2.38Q7.42-2.38 7.92-2.75Q8.41-3.12 8.41-3.78ZM16.66-15L16.66-9.43Q17.71-10.76 19.36-10.76L19.36-10.76Q21.10-10.76 21.99-9.73Q22.88-8.69 22.90-6.67L22.90-6.67L22.90 0L19.60 0L19.60-6.59Q19.60-7.43 19.26-7.83Q18.92-8.22 18.10-8.22L18.10-8.22Q17.08-8.22 16.66-7.58L16.66-7.58L16.66 0L13.37 0L13.37-15L16.66-15ZM24.33-4.82L24.32-5.38Q24.32-6.96 24.93-8.20Q25.55-9.43 26.70-10.10Q27.85-10.76 29.40-10.76L29.40-10.76Q31.78-10.76 33.14-9.29Q34.51-7.82 34.51-5.29L34.51-5.29L34.51-5.18Q34.51-2.71 33.14-1.25Q31.77 0.20 29.42 0.20L29.42 0.20Q27.17 0.20 25.80-1.16Q24.43-2.51 24.33-4.82L24.33-4.82ZM27.62-5.77L27.61-5.18Q27.61-3.71 28.07-3.03Q28.53-2.34 29.42-2.34L29.42-2.34Q31.18-2.34 31.22-5.05L31.22-5.05L31.22-5.38Q31.22-8.22 29.40-8.22L29.40-8.22Q27.75-8.22 27.62-5.77L27.62-5.77ZM45.77-5.36L45.77-5.21Q45.77-2.74 44.66-1.27Q43.55 0.20 41.67 0.20L41.67 0.20Q40.21 0.20 39.28-0.87L39.28-0.87L39.28 4.06L35.99 4.06L35.99-10.57L39.06-10.57L39.16-9.59Q40.11-10.76 41.65-10.76L41.65-10.76Q43.60-10.76 44.69-9.32Q45.77-7.88 45.77-5.36L45.77-5.36ZM42.48-5.06L42.48-5.41Q42.48-8.22 40.84-8.22L40.84-8.22Q39.67-8.22 39.28-7.38L39.28-7.38L39.28-3.22Q39.71-2.34 40.86-2.34L40.86-2.34Q42.43-2.34 42.48-5.06L42.48-5.06ZM54.69-10.57L56.35-4.34L57.41-10.57L60.57-10.57L58.08 0L55.29 0L53.54-6.27L51.79 0L49.00 0L46.51-10.57L49.67-10.57L50.71-4.19L52.39-10.57L54.69-10.57ZM70.99 0L67.70 0Q67.52-0.32 67.38-0.95L67.38-0.95Q66.47 0.20 64.84 0.20L64.84 0.20Q63.35 0.20 62.30-0.71Q61.26-1.61 61.26-2.98L61.26-2.98Q61.26-4.70 62.53-5.58Q63.80-6.46 66.22-6.46L66.22-6.46L67.24-6.46L67.24-7.01Q67.24-8.47 65.98-8.47L65.98-8.47Q64.80-8.47 64.80-7.31L64.80-7.31L61.51-7.31Q61.51-8.85 62.82-9.80Q64.12-10.76 66.14-10.76Q68.16-10.76 69.34-9.78Q70.51-8.79 70.54-7.07L70.54-7.07L70.54-2.39Q70.56-0.94 70.99-0.17L70.99-0.17L70.99 0ZM65.63-2.15L65.63-2.15Q66.25-2.15 66.66-2.41Q67.06-2.68 67.24-3.01L67.24-3.01L67.24-4.70L66.28-4.70Q64.56-4.70 64.56-3.15L64.56-3.15Q64.56-2.71 64.86-2.43Q65.17-2.15 65.63-2.15ZM74.79-10.57L76.43-3.92L78.10-10.57L81.56-10.57L78.12 0L74.76 0L71.31-10.57L74.79-10.57ZM87.53 0.20L87.53 0.20Q85.10 0.20 83.59-1.25Q82.09-2.71 82.09-5.03L82.09-5.03L82.09-5.30Q82.09-6.92 82.69-8.16Q83.29-9.40 84.44-10.08Q85.60-10.76 87.18-10.76L87.18-10.76Q89.40-10.76 90.69-9.38Q91.98-8.00 91.98-5.53L91.98-5.53L91.98-4.25L85.44-4.25Q85.62-3.36 86.21-2.85Q86.81-2.34 87.75-2.34L87.75-2.34Q89.32-2.34 90.20-3.44L90.20-3.44L91.70-1.66Q91.08-0.81 89.96-0.31Q88.83 0.20 87.53 0.20ZM87.16-8.22L87.16-8.22Q85.71-8.22 85.44-6.31L85.44-6.31L88.76-6.31L88.76-6.56Q88.78-7.35 88.36-7.79Q87.94-8.22 87.16-8.22Z"></path></g></g></svg>